<svg xmlns="http://www.w3.org/2000/svg" xmlns:xlink="http://www.w3.org/1999/xlink" xmlns:lucid="lucid" width="1120" height="220"><g transform="translate(-260 -100)" lucid:page-tab-id="0_0"><path d="M0 0h1760v1360H0z" fill="#fff"/><path d="M280 188c0-4.42 3.58-8 8-8h104c4.42 0 8 3.58 8 8v44c0 4.42-3.58 8-8 8H288c-4.42 0-8-3.58-8-8z" stroke="#333" fill="#fff" fill-opacity="0"/><use xlink:href="#a" transform="matrix(1,0,0,1,285,185) translate(17.924999999999997 30.025)"/><path d="M440 188c0-4.42 3.58-8 8-8h104c4.42 0 8 3.58 8 8v44c0 4.42-3.58 8-8 8H448c-4.42 0-8-3.58-8-8z" stroke="#333" fill="#fff" fill-opacity="0"/><use xlink:href="#b" transform="matrix(1,0,0,1,445,185) translate(37.5 17.525)"/><use xlink:href="#c" transform="matrix(1,0,0,1,445,185) translate(3.549999999999997 39.125)"/><path d="M600 188c0-4.42 3.58-8 8-8h104c4.42 0 8 3.58 8 8v44c0 4.42-3.58 8-8 8H608c-4.42 0-8-3.58-8-8z" stroke="#333" fill="#fff" fill-opacity="0"/><use xlink:href="#d" transform="matrix(1,0,0,1,605,185) translate(16.074999999999996 30.025)"/><path d="M600 128c0-4.42 3.58-8 8-8h104c4.42 0 8 3.58 8 8v44c0 4.42-3.58 8-8 8H608c-4.42 0-8-3.58-8-8z" stroke="#333" fill="#fff" fill-opacity="0"/><use xlink:href="#e" transform="matrix(1,0,0,1,605,125) translate(14.549999999999997 30.025)"/><path d="M600 248c0-4.42 3.58-8 8-8h104c4.42 0 8 3.58 8 8v44c0 4.42-3.58 8-8 8H608c-4.42 0-8-3.58-8-8z" stroke="#333" fill="#fff" fill-opacity="0"/><use xlink:href="#f" transform="matrix(1,0,0,1,605,245) translate(22.525 30.025)"/><path d="M760 188c0-4.42 3.58-8 8-8h104c4.42 0 8 3.58 8 8v44c0 4.42-3.58 8-8 8H768c-4.42 0-8-3.58-8-8z" stroke="#333" fill="#fff" fill-opacity="0"/><use xlink:href="#g" transform="matrix(1,0,0,1,765,185) translate(22.5 30.025)"/><path d="M920 188c0-4.42 3.58-8 8-8h104c4.42 0 8 3.58 8 8v44c0 4.42-3.58 8-8 8H928c-4.42 0-8-3.58-8-8z" stroke="#333" fill="#fff" fill-opacity="0"/><use xlink:href="#h" transform="matrix(1,0,0,1,925,185) translate(10.149999999999999 17.525)"/><use xlink:href="#i" transform="matrix(1,0,0,1,925,185) translate(28.549999999999997 39.125)"/><path d="M1080 188c0-4.42 3.58-8 8-8h104c4.42 0 8 3.58 8 8v44c0 4.42-3.58 8-8 8h-104c-4.42 0-8-3.58-8-8z" stroke="#333" fill="#fff" fill-opacity="0"/><use xlink:href="#j" transform="matrix(1,0,0,1,1085,185) translate(22.25 17.525)"/><use xlink:href="#k" transform="matrix(1,0,0,1,1085,185) translate(32.025 39.125)"/><path d="M1240 188c0-4.42 3.58-8 8-8h104c4.42 0 8 3.58 8 8v44c0 4.42-3.58 8-8 8h-104c-4.42 0-8-3.58-8-8z" stroke="#333" fill="#fff" fill-opacity="0"/><use xlink:href="#l" transform="matrix(1,0,0,1,1245,185) translate(11.074999999999996 30.025)"/><path d="M401 210h22.12" stroke="#333" fill="none"/><path d="M401 210.5h-.5v-1h.5z" fill="#333"/><path d="M437.88 210l-14.26 4.64v-9.28z" stroke="#333" fill="#333"/><path d="M561 210h7c6.63 0 12-5.37 12-12v-44.88c0-1.72 1.4-3.12 3.12-3.12" stroke="#333" fill="none"/><path d="M561 210.5h-.5v-1h.5z" fill="#333"/><path d="M597.88 150l-14.26 4.64v-9.28z" stroke="#333" fill="#333"/><path d="M583.12 210H561" stroke="#333" fill="none"/><path d="M597.88 210l-14.26 4.64v-9.28z" stroke="#333" fill="#333"/><path d="M561 210h-.5M561 210h7c6.63 0 12 5.37 12 12v44.88c0 1.72 1.4 3.12 3.12 3.12" stroke="#333" fill="none"/><path d="M561 210.5h-.5v-1h.5z" fill="#333"/><path d="M597.88 270l-14.26 4.64v-9.28z" stroke="#333" fill="#333"/><path d="M721 150h7c6.63 0 12 5.37 12 12v44.88c0 1.72 1.4 3.12 3.12 3.12" stroke="#333" fill="none"/><path d="M721 150.5h-.5v-1h.5z" fill="#333"/><path d="M757.88 210l-14.26 4.64v-9.28z" stroke="#333" fill="#333"/><path d="M721 210h22.12" stroke="#333" fill="none"/><path d="M721 210.5h-.5v-1h.5z" fill="#333"/><path d="M757.88 210l-14.26 4.64v-9.28z" stroke="#333" fill="#333"/><path d="M721 270h7c6.63 0 12-5.37 12-12v-44.88c0-1.72 1.4-3.12 3.12-3.12" stroke="#333" fill="none"/><path d="M721 270.5h-.5v-1h.5z" fill="#333"/><path d="M757.88 210l-14.26 4.64v-9.28z" stroke="#333" fill="#333"/><path d="M881 210h22.12" stroke="#333" fill="none"/><path d="M881 210.5h-.5v-1h.5z" fill="#333"/><path d="M917.88 210l-14.26 4.64v-9.28z" stroke="#333" fill="#333"/><path d="M1041 210h22.12" stroke="#333" fill="none"/><path d="M1041 210.5h-.5v-1h.5z" fill="#333"/><path d="M1077.88 210l-14.26 4.64v-9.28z" stroke="#333" fill="#333"/><path d="M1201 210h22.12" stroke="#333" fill="none"/><path d="M1201 210.5h-.5v-1h.5z" fill="#333"/><path d="M1237.88 210l-14.26 4.64v-9.28z" stroke="#333" fill="#333"/><defs><path fill="#333" d="M127-220V0H93v-220H8v-28h204v28h-85" id="m"/><path fill="#333" d="M114-163C36-179 61-72 57 0H25l-1-190h30c1 12-1 29 2 39 6-27 23-49 58-41v29" id="n"/><path fill="#333" d="M141-36C126-15 110 5 73 4 37 3 15-17 15-53c-1-64 63-63 125-63 3-35-9-54-41-54-24 1-41 7-42 31l-33-3c5-37 33-52 76-52 45 0 72 20 72 64v82c-1 20 7 32 28 27v20c-31 9-61-2-59-35zM48-53c0 20 12 33 32 33 41-3 63-29 60-74-43 2-92-5-92 41" id="o"/><path fill="#333" d="M24-231v-30h32v30H24zM24 0v-190h32V0H24" id="p"/><path fill="#333" d="M117-194c89-4 53 116 60 194h-32v-121c0-31-8-49-39-48C34-167 62-67 57 0H25l-1-190h30c1 10-1 24 2 32 11-22 29-35 61-36" id="q"/><path fill="#333" d="M177-190C167-65 218 103 67 71c-23-6-38-20-44-43l32-5c15 47 100 32 89-28v-30C133-14 115 1 83 1 29 1 15-40 15-95c0-56 16-97 71-98 29-1 48 16 59 35 1-10 0-23 2-32h30zM94-22c36 0 50-32 50-73 0-42-14-75-50-75-39 0-46 34-46 75s6 73 46 73" id="r"/><g id="a"><use transform="matrix(0.05,0,0,0.05,0,0)" xlink:href="#m"/><use transform="matrix(0.05,0,0,0.05,10.3,0)" xlink:href="#n"/><use transform="matrix(0.05,0,0,0.05,16.25,0)" xlink:href="#o"/><use transform="matrix(0.05,0,0,0.05,26.25,0)" xlink:href="#p"/><use transform="matrix(0.05,0,0,0.05,30.200000000000003,0)" xlink:href="#q"/><use transform="matrix(0.05,0,0,0.05,40.2,0)" xlink:href="#q"/><use transform="matrix(0.05,0,0,0.05,50.2,0)" xlink:href="#p"/><use transform="matrix(0.05,0,0,0.05,54.150000000000006,0)" xlink:href="#q"/><use transform="matrix(0.05,0,0,0.05,64.15,0)" xlink:href="#r"/></g><path fill="#333" d="M33 0v-248h34V0H33" id="s"/><path fill="#333" d="M85-194c31 0 48 13 60 33l-1-100h32l1 261h-30c-2-10 0-23-3-31C134-8 116 4 85 4 32 4 16-35 15-94c0-66 23-100 70-100zm9 24c-40 0-46 34-46 75 0 40 6 74 45 74 42 0 51-32 51-76 0-42-9-74-50-73" id="t"/><path fill="#333" d="M100-194c63 0 86 42 84 106H49c0 40 14 67 53 68 26 1 43-12 49-29l28 8c-11 28-37 45-77 45C44 4 14-33 15-96c1-61 26-98 85-98zm52 81c6-60-76-77-97-28-3 7-6 17-6 28h103" id="u"/><g id="b"><use transform="matrix(0.05,0,0,0.05,0,0)" xlink:href="#s"/><use transform="matrix(0.05,0,0,0.05,5,0)" xlink:href="#t"/><use transform="matrix(0.05,0,0,0.05,15,0)" xlink:href="#u"/><use transform="matrix(0.05,0,0,0.05,25,0)" xlink:href="#o"/></g><path fill="#333" d="M108 0H70L1-190h34L89-25l56-165h34" id="v"/><path fill="#333" d="M24 0v-261h32V0H24" id="w"/><path fill="#333" d="M100-194c62-1 85 37 85 99 1 63-27 99-86 99S16-35 15-95c0-66 28-99 85-99zM99-20c44 1 53-31 53-75 0-43-8-75-51-75s-53 32-53 75 10 74 51 75" id="x"/><path fill="#333" d="M115-194c55 1 70 41 70 98S169 2 115 4C84 4 66-9 55-30l1 105H24l-1-265h31l2 30c10-21 28-34 59-34zm-8 174c40 0 45-34 45-75s-6-73-45-74c-42 0-51 32-51 76 0 43 10 73 51 73" id="y"/><path fill="#333" d="M210-169c-67 3-38 105-44 169h-31v-121c0-29-5-50-35-48C34-165 62-65 56 0H25l-1-190h30c1 10-1 24 2 32 10-44 99-50 107 0 11-21 27-35 58-36 85-2 47 119 55 194h-31v-121c0-29-5-49-35-48" id="z"/><path fill="#333" d="M59-47c-2 24 18 29 38 22v24C64 9 27 4 27-40v-127H5v-23h24l9-43h21v43h35v23H59v120" id="A"/><g id="c"><use transform="matrix(0.05,0,0,0.05,0,0)" xlink:href="#t"/><use transform="matrix(0.05,0,0,0.05,10,0)" xlink:href="#u"/><use transform="matrix(0.05,0,0,0.05,20,0)" xlink:href="#v"/><use transform="matrix(0.05,0,0,0.05,29,0)" xlink:href="#u"/><use transform="matrix(0.05,0,0,0.05,39,0)" xlink:href="#w"/><use transform="matrix(0.05,0,0,0.05,42.95,0)" xlink:href="#x"/><use transform="matrix(0.05,0,0,0.05,52.95,0)" xlink:href="#y"/><use transform="matrix(0.05,0,0,0.05,62.95,0)" xlink:href="#z"/><use transform="matrix(0.05,0,0,0.05,77.9,0)" xlink:href="#u"/><use transform="matrix(0.05,0,0,0.05,87.9,0)" xlink:href="#q"/><use transform="matrix(0.05,0,0,0.05,97.9,0)" xlink:href="#A"/></g><path fill="#333" d="M63-220v92h138v28H63V0H30v-248h175v28H63" id="B"/><path fill="#333" d="M135-143c-3-34-86-38-87 0 15 53 115 12 119 90S17 21 10-45l28-5c4 36 97 45 98 0-10-56-113-15-118-90-4-57 82-63 122-42 12 7 21 19 24 35" id="C"/><path fill="#333" d="M115-194c53 0 69 39 70 98 0 66-23 100-70 100C84 3 66-7 56-30L54 0H23l1-261h32v101c10-23 28-34 59-34zm-8 174c40 0 45-34 45-75 0-40-5-75-45-74-42 0-51 32-51 76 0 43 10 73 51 73" id="D"/><path fill="#333" d="M103-251c84 0 111 97 45 133-19 10-37 24-39 52H78c0-63 77-55 77-114 0-30-21-42-52-43-32 0-53 17-56 46l-32-2c7-45 34-72 88-72zM77 0v-35h34V0H77" id="E"/><g id="d"><use transform="matrix(0.05,0,0,0.05,0,0)" xlink:href="#B"/><use transform="matrix(0.05,0,0,0.05,10.950000000000001,0)" xlink:href="#u"/><use transform="matrix(0.05,0,0,0.05,20.950000000000003,0)" xlink:href="#o"/><use transform="matrix(0.05,0,0,0.05,30.950000000000003,0)" xlink:href="#C"/><use transform="matrix(0.05,0,0,0.05,39.95,0)" xlink:href="#p"/><use transform="matrix(0.05,0,0,0.05,43.900000000000006,0)" xlink:href="#D"/><use transform="matrix(0.05,0,0,0.05,53.900000000000006,0)" xlink:href="#w"/><use transform="matrix(0.05,0,0,0.05,57.85,0)" xlink:href="#u"/><use transform="matrix(0.05,0,0,0.05,67.85000000000001,0)" xlink:href="#E"/></g><path fill="#333" d="M233-177c-1 41-23 64-60 70L243 0h-38l-65-103H63V0H30v-248c88 3 205-21 203 71zM63-129c60-2 137 13 137-47 0-61-80-42-137-45v92" id="F"/><g id="e"><use transform="matrix(0.05,0,0,0.05,0,0)" xlink:href="#F"/><use transform="matrix(0.05,0,0,0.05,12.950000000000001,0)" xlink:href="#u"/><use transform="matrix(0.05,0,0,0.05,22.950000000000003,0)" xlink:href="#w"/><use transform="matrix(0.05,0,0,0.05,26.900000000000002,0)" xlink:href="#u"/><use transform="matrix(0.05,0,0,0.05,36.900000000000006,0)" xlink:href="#v"/><use transform="matrix(0.05,0,0,0.05,45.900000000000006,0)" xlink:href="#o"/><use transform="matrix(0.05,0,0,0.05,55.900000000000006,0)" xlink:href="#q"/><use transform="matrix(0.05,0,0,0.05,65.9,0)" xlink:href="#A"/><use transform="matrix(0.05,0,0,0.05,70.9,0)" xlink:href="#E"/></g><path fill="#333" d="M194 0L95-120 63-95V0H30v-248h33v124l119-124h40L117-140 236 0h-42" id="G"/><path fill="#333" d="M206 0h-36l-40-164L89 0H53L-1-190h32L70-26l43-164h34l41 164 42-164h31" id="H"/><g id="f"><use transform="matrix(0.05,0,0,0.05,0,0)" xlink:href="#G"/><use transform="matrix(0.05,0,0,0.05,12,0)" xlink:href="#q"/><use transform="matrix(0.05,0,0,0.05,22,0)" xlink:href="#x"/><use transform="matrix(0.05,0,0,0.05,32,0)" xlink:href="#H"/><use transform="matrix(0.05,0,0,0.05,44.95,0)" xlink:href="#q"/><use transform="matrix(0.05,0,0,0.05,54.95,0)" xlink:href="#E"/></g><path fill="#333" d="M30 0v-248h187v28H63v79h144v27H63v87h162V0H30" id="I"/><path fill="#333" d="M141 0L90-78 38 0H4l68-98-65-92h35l48 74 47-74h35l-64 92 68 98h-35" id="J"/><path fill="#333" d="M96-169c-40 0-48 33-48 73s9 75 48 75c24 0 41-14 43-38l32 2c-6 37-31 61-74 61-59 0-76-41-82-99-10-93 101-131 147-64 4 7 5 14 7 22l-32 3c-4-21-16-35-41-35" id="K"/><path fill="#333" d="M84 4C-5 8 30-112 23-190h32v120c0 31 7 50 39 49 72-2 45-101 50-169h31l1 190h-30c-1-10 1-25-2-33-11 22-28 36-60 37" id="L"/><g id="g"><use transform="matrix(0.05,0,0,0.05,0,0)" xlink:href="#I"/><use transform="matrix(0.05,0,0,0.05,12,0)" xlink:href="#J"/><use transform="matrix(0.05,0,0,0.05,21,0)" xlink:href="#u"/><use transform="matrix(0.05,0,0,0.05,31,0)" xlink:href="#K"/><use transform="matrix(0.05,0,0,0.05,40,0)" xlink:href="#L"/><use transform="matrix(0.05,0,0,0.05,50,0)" xlink:href="#A"/><use transform="matrix(0.05,0,0,0.05,55,0)" xlink:href="#u"/></g><path fill="#333" d="M30-248c87 1 191-15 191 75 0 78-77 80-158 76V0H30v-248zm33 125c57 0 124 11 124-50 0-59-68-47-124-48v98" id="M"/><path fill="#333" d="M179-190L93 31C79 59 56 82 12 73V49c39 6 53-20 64-50L1-190h34L92-34l54-156h33" id="N"/><g id="h"><use transform="matrix(0.05,0,0,0.05,0,0)" xlink:href="#M"/><use transform="matrix(0.05,0,0,0.05,12,0)" xlink:href="#n"/><use transform="matrix(0.05,0,0,0.05,17.95,0)" xlink:href="#u"/><use transform="matrix(0.05,0,0,0.05,27.950000000000003,0)" xlink:href="#w"/><use transform="matrix(0.05,0,0,0.05,31.899999999999995,0)" xlink:href="#p"/><use transform="matrix(0.05,0,0,0.05,35.85,0)" xlink:href="#z"/><use transform="matrix(0.05,0,0,0.05,50.800000000000004,0)" xlink:href="#p"/><use transform="matrix(0.05,0,0,0.05,54.75,0)" xlink:href="#q"/><use transform="matrix(0.05,0,0,0.05,64.75,0)" xlink:href="#o"/><use transform="matrix(0.05,0,0,0.05,74.75,0)" xlink:href="#n"/><use transform="matrix(0.05,0,0,0.05,80.7,0)" xlink:href="#N"/></g><g id="i"><use transform="matrix(0.05,0,0,0.05,0,0)" xlink:href="#n"/><use transform="matrix(0.05,0,0,0.05,5.95,0)" xlink:href="#u"/><use transform="matrix(0.05,0,0,0.05,15.949999999999998,0)" xlink:href="#C"/><use transform="matrix(0.05,0,0,0.05,24.95,0)" xlink:href="#L"/><use transform="matrix(0.05,0,0,0.05,34.95,0)" xlink:href="#w"/><use transform="matrix(0.05,0,0,0.05,38.900000000000006,0)" xlink:href="#A"/><use transform="matrix(0.05,0,0,0.05,43.900000000000006,0)" xlink:href="#C"/></g><path fill="#333" d="M266 0h-40l-56-210L115 0H75L2-248h35L96-30l15-64 43-154h32l59 218 59-218h35" id="O"/><path fill="#333" d="M143 0L79-87 56-68V0H24v-261h32v163l83-92h37l-77 82L181 0h-38" id="P"/><g id="j"><use transform="matrix(0.05,0,0,0.05,0,0)" xlink:href="#O"/><use transform="matrix(0.05,0,0,0.05,16.599999999999998,0)" xlink:href="#x"/><use transform="matrix(0.05,0,0,0.05,26.599999999999994,0)" xlink:href="#n"/><use transform="matrix(0.05,0,0,0.05,32.55,0)" xlink:href="#P"/><use transform="matrix(0.05,0,0,0.05,41.55,0)" xlink:href="#p"/><use transform="matrix(0.05,0,0,0.05,45.5,0)" xlink:href="#q"/><use transform="matrix(0.05,0,0,0.05,55.5,0)" xlink:href="#r"/></g><g id="k"><use transform="matrix(0.05,0,0,0.05,0,0)" xlink:href="#y"/><use transform="matrix(0.05,0,0,0.05,10,0)" xlink:href="#o"/><use transform="matrix(0.05,0,0,0.05,20,0)" xlink:href="#y"/><use transform="matrix(0.05,0,0,0.05,30,0)" xlink:href="#u"/><use transform="matrix(0.05,0,0,0.05,40,0)" xlink:href="#n"/></g><g id="l"><use transform="matrix(0.05,0,0,0.05,0,0)" xlink:href="#M"/><use transform="matrix(0.05,0,0,0.05,12,0)" xlink:href="#L"/><use transform="matrix(0.05,0,0,0.05,22,0)" xlink:href="#D"/><use transform="matrix(0.05,0,0,0.05,32,0)" xlink:href="#w"/><use transform="matrix(0.05,0,0,0.05,35.95,0)" xlink:href="#p"/><use transform="matrix(0.05,0,0,0.05,39.900000000000006,0)" xlink:href="#K"/><use transform="matrix(0.05,0,0,0.05,48.900000000000006,0)" xlink:href="#o"/><use transform="matrix(0.05,0,0,0.05,58.900000000000006,0)" xlink:href="#A"/><use transform="matrix(0.05,0,0,0.05,63.900000000000006,0)" xlink:href="#p"/><use transform="matrix(0.05,0,0,0.05,67.85000000000001,0)" xlink:href="#x"/><use transform="matrix(0.05,0,0,0.05,77.85000000000001,0)" xlink:href="#q"/></g></defs></g></svg>